Motion_pl09
version=1
nRows=5
nColumns=43
inDegrees=yes
endheader
time	pelvis_tilt	pelvis_list	pelvis_rotation	pelvis_tx	pelvis_ty	pelvis_tz	hip_flexion_r	hip_adduction_r	hip_rotation_r	knee_angle_r	ankle_angle_r	subtalar_angle_r	mtp_angle_r	hip_flexion_l	hip_adduction_l	hip_rotation_l	knee_angle_l	ankle_angle_l	subtalar_angle_l	mtp_angle_l	lumbar_extension	lumbar_bending	lumbar_rotation	neck_flexion	neck_lateral_bending	neck_rotation	arm_flex_r	arm_add_r	arm_rot_r	elbow_flex_r	pro_sup_r	wrist_flex_r	wrist_dev_r	hand_finger_flex_r	arm_flex_l	arm_add_l	arm_rot_l	elbow_flex_l	pro_sup_l	wrist_flex_l	wrist_dev_l	hand_finger_flex_l
      1.69250000	     -6.77839389	     16.40155326	     95.52274562	     -0.00596449	      0.46097252	      0.46434471	     72.57979312	    -12.10100507	      7.46448313	   -140.79296945	     21.69448093	     16.06387320	     39.90195333	     67.56439553	     -9.19330388	     -3.05119875	   -137.15981337	     25.84718948	      7.54111224	     37.05416671	    -66.54120750	      0.74473874	      2.17131486	      0.80208636	      1.91609472	     -9.91505976	    124.29172495	    -17.33412067	     49.44481296	     60.25745309	     96.06486485	    -35.81438192	     -3.86017432	     39.98688737	    129.57810372	    -26.51185025	     51.78900561	     61.63194918	    136.52790614	    -35.67141990	      2.98645746	     90.00021046
      1.69500000	     -6.76684011	     16.26400784	     95.49033802	     -0.00600238	      0.46383404	      0.46364142	     72.29872070	    -12.21073300	      7.38706546	   -140.42262462	     21.62060629	     16.06907435	     39.95446036	     67.27268471	     -9.24815893	     -3.16008674	   -136.75892373	     25.76875332	      7.57452101	     37.08748451	    -66.25446317	      0.75849172	      2.18095719	      0.52845467	      1.88694702	     -9.91373152	    124.09880188	    -17.57386150	     49.66585989	     60.74771712	     95.99395279	    -35.84371016	     -4.00761126	     40.03376777	    129.48968062	    -26.91069545	     51.89528318	     61.95309888	    136.49168210	    -35.71230925	      2.93313340	     90.00021046
      1.69750000	     -6.74241419	     16.15046904	     95.43425507	     -0.00599805	      0.46671409	      0.46295602	     71.99671695	    -12.29596796	      7.31068859	   -140.04016337	     21.53237617	     16.13932322	     40.01426213	     66.94291073	     -9.33513237	     -3.26410719	   -136.35691307	     25.74153672	      7.61145257	     37.13180456	    -65.99448283	      0.76177916	      2.20558814	      0.27496660	      1.87668057	     -9.88381562	    123.96930590	    -17.81584984	     49.98483033	     61.19049951	     95.93633882	    -35.88885753	     -4.15738969	     40.06881930	    129.45303104	    -27.33812631	     52.08878316	     62.27315609	    136.47185562	    -35.74301834	      2.86597333	     90.00021046
      1.70000000	     -6.70587076	     16.20567783	     95.29245580	     -0.00587518	      0.47001561	      0.46248061	     71.48978237	    -12.28318324	      7.28074240	   -139.60320749	     21.41746912	     16.50785991	     40.39539132	     66.38689903	     -9.51469134	     -3.37845452	   -135.91816690	     25.83736490	      7.73290043	     37.41111647	    -65.99504129	      0.72726774	      2.23467561	      0.26370262	      1.82065530	     -9.75845928	    124.18655051	    -18.02159305	     50.86170353	     61.43347680	     95.45270438	    -36.48148755	     -4.48437244	     40.01748153	    129.76448984	    -27.92391510	     52.75481052	     62.58753615	    136.26209533	    -35.86377534	      2.83858888	     90.00021046
      1.70250000	     -6.69437481	     16.07739204	     95.25874326	     -0.00594715	      0.47293375	      0.46174256	     71.19418401	    -12.40948418	      7.20329038	   -139.22391613	     21.35302556	     16.54491043	     40.44668605	     66.07221526	     -9.58408623	     -3.50570213	   -135.52123544	     25.74708051	      7.77470788	     37.44550372	    -65.71748972	      0.74158705	      2.25413208	      0.01427458	      1.78756810	     -9.74937327	    123.97937026	    -18.28791093	     51.08805357	     61.91810313	     95.40985422	    -36.52810304	     -4.63271976	     40.06738366	    129.66584308	    -28.32792288	     52.88645917	     62.91579061	    136.22937881	    -35.91877169	      2.79946739	     90.00021046
